# xmcd
#
# Track frame offsets:
#	150
#	21268
#	39463
#	58675
#	76870
#	93517
#	111197
#	128725
#	147295
#	162415
#	181528
#	197905
#
# Disc length: 2773 seconds
#
# Revision: 1
# Processed by: cddbd v1.5PL3 Copyright (c) Steve Scherf et al.
# Submitted via: audiograbber 1.83.01
#
DISCID=9b0ad30c
DTITLE=Pod Buda - Jak Kapitalizm To Kapitalizm
DYEAR=1993
DGENRE=
TTITLE0=Doliczyc Do Trzech
TTITLE1=Romans Z Harlequina
TTITLE2=Nie Przenoscie Nam Stolicy Do Krakowa
TTITLE3=Sa Takie Sprawy
TTITLE4=Wyznanie Barmana
TTITLE5=Widziane Z Ksiezyca
TTITLE6=Turkusowa Polana
TTITLE7=Moje Kobiety
TTITLE8=Na Calosc
TTITLE9=Wywiad Na Pierwsza Strone
TTITLE10=Jak Kapitalizm To Kapitalizm
TTITLE11=Dobra Rada
EXTD=by **ULm@N**
EXTT0=
EXTT1=
EXTT2=
EXTT3=
EXTT4=
EXTT5=
EXTT6=
EXTT7=
EXTT8=
EXTT9=
EXTT10=
EXTT11=
PLAYORDER=
